<?xml version="1.0" encoding="UTF-8"?>
<svg version="1.1" xmlns="http://www.w3.org/2000/svg" width="512" height="512">
<path d="M0 0 C1.3104126 0.00757324 2.6208252 0.01514648 3.97094727 0.02294922 C33.48078567 0.52209705 59.44571838 12.97837763 80.16577148 33.86791992 C97.80758115 52.34362577 109.45626313 78.77131083 109.25 104.4375 C109.86238525 104.53401855 110.47477051 104.63053711 111.10571289 104.72998047 C117.47032632 105.85046388 122.89599201 107.72633189 128.6875 110.5625 C129.5137085 110.96210937 130.33991699 111.36171875 131.19116211 111.7734375 C137.74749418 115.02555316 143.63422532 118.72133971 149.25 123.4375 C150.10851562 124.15808594 150.96703125 124.87867187 151.8515625 125.62109375 C171.48771535 142.7359883 185.60809201 167.20532023 187.47045898 193.55688477 C188.62059927 225.70974932 180.86437363 251.59422027 159.015625 275.92578125 C147.42767825 288.10069916 133.22308881 297.11313706 117.25 302.4375 C116.92 315.9675 116.59 329.4975 116.25 343.4375 C120.21 344.0975 124.17 344.7575 128.25 345.4375 C149.93199508 351.95920464 168.30764765 366.55130393 179.31396484 386.3515625 C189.89299905 406.55859159 192.94873905 430.43120062 186.25 452.4375 C178.95268773 475.15806934 164.80319523 492.35037413 143.8046875 503.6484375 C124.04380401 513.59402501 100.30736624 516.21609667 78.921875 509.83203125 C57.17023627 501.57103654 39.41433084 488.07682215 28.25 467.4375 C26.97736097 464.42314025 26.0710751 461.61232372 25.25 458.4375 C24.29802734 458.5804248 23.34605469 458.72334961 22.36523438 458.87060547 C12.10584392 460.3284517 2.09959509 460.68458514 -8.25 460.5625 C-9.76692103 460.55242835 -11.2838487 460.54331005 -12.80078125 460.53515625 C-16.45066308 460.51352408 -20.1002859 460.4792367 -23.75 460.4375 C-23.73952637 461.14769287 -23.72905273 461.85788574 -23.71826172 462.58959961 C-23.67632514 465.85136279 -23.65055514 469.11306896 -23.625 472.375 C-23.59986328 474.05045898 -23.59986328 474.05045898 -23.57421875 475.75976562 C-23.5111636 486.51066791 -24.4423914 495.13056031 -31.75 503.4375 C-42.17709989 512.61021193 -54.63211341 511.72903901 -67.703125 511.69628906 C-69.52234029 511.69900217 -71.34155448 511.70256489 -73.1607666 511.70690918 C-78.08219618 511.7159974 -83.00354155 511.71250366 -87.92497253 511.70615101 C-93.08572611 511.70107252 -98.24647269 511.70578759 -103.40722656 511.70892334 C-112.07227873 511.7125576 -120.73729677 511.70777806 -129.40234375 511.69824219 C-139.40722006 511.68735869 -149.41201485 511.69088465 -159.41688919 511.701895 C-168.02096884 511.71098326 -176.625024 511.71224562 -185.2291069 511.70701766 C-190.36177659 511.70390643 -195.494408 511.70346531 -200.6270752 511.71009064 C-205.45342305 511.71588586 -210.27966621 511.71182743 -215.10600281 511.70030212 C-216.87281623 511.69766717 -218.63963852 511.69840064 -220.40644836 511.70282745 C-244.71765324 511.75810462 -244.71765324 511.75810462 -253.75 503.4375 C-258.39373717 497.17770335 -260.86645331 491.89304376 -260.90390015 484.06980896 C-260.91047353 483.09649497 -260.91047353 483.09649497 -260.9171797 482.10351807 C-260.93055442 479.9250475 -260.93674364 477.74661739 -260.94287109 475.56811523 C-260.95077333 474.00756142 -260.95904236 472.44700943 -260.96765137 470.88645935 C-260.99386508 465.75635522 -261.00918184 460.62624297 -261.0234375 455.49609375 C-261.02879811 453.72843992 -261.03417562 451.96078613 -261.03956985 450.1931324 C-261.06120073 442.83709514 -261.07993518 435.48106006 -261.09119225 428.12499905 C-261.10741561 417.59363378 -261.14055166 407.06263839 -261.19759309 396.53141254 C-261.23635454 389.12149063 -261.25583247 381.71166737 -261.26111281 374.30164677 C-261.26475878 369.87908044 -261.27669877 365.45690868 -261.30921555 361.03445244 C-261.33940442 356.86876256 -261.34556986 352.70370371 -261.33383179 348.53792763 C-261.33361193 347.01500973 -261.34184398 345.49206164 -261.35948563 343.96924591 C-261.45488133 335.25521132 -261.09348913 327.70630846 -255.75 320.4375 C-248.47776265 313.3821329 -240.99097812 312.12708137 -231.1953125 312.1015625 C-230.29432831 312.0949057 -229.39334412 312.0882489 -228.46505737 312.08139038 C-226.56738309 312.07130893 -224.66967369 312.06657196 -222.77197266 312.06689453 C-219.89034841 312.06252328 -217.01025997 312.02616143 -214.12890625 311.98828125 C-212.27604685 311.98241149 -210.42318025 311.97844316 -208.5703125 311.9765625 C-207.72002472 311.96219147 -206.86973694 311.94782043 -205.99368286 311.93301392 C-196.87492756 312.00164186 -190.29039491 315.32453806 -183.75 321.625 C-183.22092041 322.12821777 -182.69184082 322.63143555 -182.14672852 323.14990234 C-178.80259602 326.35663097 -175.5415044 329.64579487 -172.27734375 332.93359375 C-171.51615234 333.69969971 -170.75496094 334.46580566 -169.97070312 335.25512695 C-168.46956912 336.77215192 -166.97457045 338.29527708 -165.48632812 339.82495117 C-164.45475586 340.87453003 -164.45475586 340.87453003 -163.40234375 341.9453125 C-162.79382568 342.57066895 -162.18530762 343.19602539 -161.55834961 343.84033203 C-156.48416863 348.32194294 -152.93312873 347.71918713 -145.75 348.4375 C-146.08 333.2575 -146.41 318.0775 -146.75 302.4375 C-154.67 298.9725 -154.67 298.9725 -162.75 295.4375 C-172.61714493 289.65331159 -180.70591314 283.47012804 -188.75 275.4375 C-189.55179687 274.64730469 -190.35359375 273.85710937 -191.1796875 273.04296875 C-209.89058515 253.52277622 -217.41114751 227.32545297 -217.15454102 200.84936523 C-216.49689341 174.97236168 -206.33892298 152.8457847 -189.75 133.4375 C-189.17894531 132.76332031 -188.60789062 132.08914062 -188.01953125 131.39453125 C-181.45719249 124.29235999 -172.76435745 118.78040497 -164.75 113.4375 C-164.31028852 110.33136888 -164.31028852 110.33136888 -164.3125 106.6875 C-163.48689355 87.12534497 -154.54465942 72.27240081 -140.375 59.1875 C-127.26198097 48.49162734 -110.04886128 43.50053969 -93.3125 44.9375 C-89.69444714 45.01005454 -88.31430793 44.92476589 -85.546875 42.53515625 C-83.49120781 39.90892002 -81.63496223 37.18800611 -79.75 34.4375 C-68.39449848 21.54119623 -53.37932361 11.9056849 -37.25 6.125 C-36.2916626 5.77961182 -36.2916626 5.77961182 -35.31396484 5.42724609 C-23.69298452 1.50174518 -12.23949679 -0.09997903 0 0 Z " fill="#010202" transform="translate(291.75,-0.4375)"/>
<path d="M0 0 C1.46683321 1.19800079 2.92520035 2.4064408 4.375 3.625 C5.48488281 4.51638672 5.48488281 4.51638672 6.6171875 5.42578125 C24.26222869 20.17068591 34.57197007 42.11645893 37.375 64.625 C37.6710497 68.58694906 37.807164 72.54345636 37.87109375 76.515625 C38.48093765 80.2786928 39.31272018 81.40640951 42.375 83.625 C44.88780032 84.53151963 44.88780032 84.53151963 47.6875 85 C64.54515674 88.82380994 77.92291813 96.73015415 90.375 108.625 C90.98988281 109.16511719 91.60476563 109.70523438 92.23828125 110.26171875 C106.31607664 123.10972972 115.50390406 144.81477203 116.375 163.625 C117.15339535 188.02282938 111.48005997 209.60499705 95.375 228.625 C94.86710937 229.27726563 94.35921875 229.92953125 93.8359375 230.6015625 C85.38915404 241.04561496 73.73105902 248.59598407 61.375 253.625 C60.385 253.625 59.395 253.625 58.375 253.625 C58.37537703 253.02607752 58.37575405 252.42715504 58.3761425 251.81008339 C58.38327555 237.20232108 58.35721839 222.59487482 58.2947216 207.98725319 C58.26528886 200.92290182 58.24687888 193.85884994 58.25488281 186.79443359 C58.26257981 179.97310415 58.23894427 173.15244812 58.19644547 166.33124924 C58.18532855 163.73266302 58.18460118 161.13401032 58.19457626 158.53541946 C58.20678297 154.8869878 58.18160127 151.24054326 58.14794922 147.59228516 C58.16628059 145.99113358 58.16628059 145.99113358 58.1849823 144.3576355 C58.03080035 135.04297698 54.51850457 128.46239811 47.875 122 C35.16812506 111.87717239 20.75614505 107.20576023 5.375 102.625 C4.61364746 102.39796387 3.85229492 102.17092773 3.06787109 101.93701172 C-8.29677043 98.63638085 -19.89818499 97.01309754 -31.625 95.625 C-32.49415039 95.51913574 -33.36330078 95.41327148 -34.25878906 95.30419922 C-59.78109885 92.30744122 -86.12948068 92.50160337 -111.625 95.625 C-112.45 95.72151855 -113.275 95.81803711 -114.125 95.91748047 C-140.70745441 99.11936234 -177.56613693 104.81254089 -195.546875 126.99609375 C-199.1554201 132.22848414 -200.7348658 136.12728499 -200.78321838 142.50982666 C-200.79790161 143.98213745 -200.79790161 143.98213745 -200.81288147 145.48419189 C-200.81863693 146.55449646 -200.8243924 147.62480103 -200.83032227 148.72753906 C-200.84022186 149.85953735 -200.85012146 150.99153564 -200.86032104 152.15783691 C-200.89192597 155.90207828 -200.91668963 159.64633234 -200.94140625 163.390625 C-200.96197663 165.98566011 -200.98297313 168.58069187 -201.00437927 171.17572021 C-201.05394694 177.30961062 -201.09921456 183.44351898 -201.14240164 189.57745719 C-201.19181539 196.56172816 -201.24671815 203.5459526 -201.30208123 210.53017855 C-201.41582701 224.89507532 -201.52268212 239.26001751 -201.625 253.625 C-212.34841575 251.69802131 -221.65352009 244.77532904 -229.625 237.625 C-230.98431641 236.40683594 -230.98431641 236.40683594 -232.37109375 235.1640625 C-250.09195535 218.40174959 -259.08429908 196.09856731 -260.02539062 171.89160156 C-260.40533197 148.68518393 -250.73348531 126.77923061 -234.91796875 109.95703125 C-234.16128906 109.18746094 -233.40460938 108.41789062 -232.625 107.625 C-231.96113281 106.94824219 -231.29726562 106.27148438 -230.61328125 105.57421875 C-227.1373721 102.27044986 -223.88655716 99.67439403 -219.53515625 97.64453125 C-212.9453261 94.5000479 -212.9453261 94.5000479 -207.625 89.625 C-205.68030893 83.66085978 -206.39328101 77.23216882 -206.62841797 71.04931641 C-206.61271672 59.91264688 -199.34111174 49.23743122 -192 41.4375 C-183.32995531 33.1210674 -172.80117917 27.1792907 -160.625 26.625 C-158.79162352 26.70715203 -156.95936087 26.81710468 -155.12890625 26.94921875 C-144.30544978 28.08432155 -144.30544978 28.08432155 -134.58203125 24.4140625 C-132.75959531 21.80862875 -131.19409974 19.17822143 -129.69189453 16.37890625 C-119.11083344 -1.01568023 -96.43767765 -11.94420648 -77.4375 -16.8125 C-51.20771037 -22.82476251 -21.39973108 -16.24316937 0 0 Z " fill="#63B3F4" transform="translate(348.625,32.375)"/>
<path d="M0 0 C68.64 0 137.28 0 208 0 C208 82.80356414 208 82.80356414 202.80074978 88.34325409 C199.22683852 90.45735329 196.22344236 90.55763375 192.18800354 90.50793457 C191.40800631 90.51417453 190.62800908 90.5204145 189.82437557 90.52684355 C187.21406997 90.54278207 184.60469708 90.53016629 181.99438477 90.51757812 C180.12162736 90.52299892 178.24887421 90.53012133 176.37612915 90.53881836 C171.29136753 90.55706097 166.20693039 90.54997993 161.12216306 90.53730202 C155.80115459 90.52717775 150.48017398 90.53656625 145.15916443 90.54284668 C136.22218842 90.55012538 127.28534461 90.54053017 118.34838867 90.52148438 C108.01740276 90.49972191 97.68673268 90.50676163 87.35575444 90.52879 C78.48596671 90.54694556 69.61627404 90.54950133 60.74647373 90.53903532 C55.4489216 90.53280042 50.15151788 90.53196461 44.8539753 90.54518127 C39.87245157 90.55674113 34.89133469 90.5487114 29.90985489 90.52560425 C28.08212522 90.52031762 26.25436129 90.52183016 24.42664528 90.53065491 C21.93029556 90.54159617 19.43524705 90.5278648 16.9389801 90.50793457 C16.21669663 90.51685746 15.49441315 90.52578034 14.75024229 90.53497362 C9.71054161 90.45700011 6.82915823 89.24502051 3 86 C-11.75784936 61.4035844 0 28.68410322 0 0 Z " fill="#FDA731" transform="translate(45,406)"/>
<path d="M0 0 C16.26253235 12.32269236 27.14016723 29.65299307 30 50 C31.87201633 69.71857206 25.80646405 88.01925875 13.875 103.6875 C2.02593849 117.51476939 -15.00914021 127.07652903 -33.18798828 129.26318359 C-52.76173138 130.66604965 -70.69025363 125.25253696 -86 113 C-87.06347656 112.20142578 -87.06347656 112.20142578 -88.1484375 111.38671875 C-97.39680371 104.02092511 -103.94508661 92.97211859 -108 82 C-108.31839844 81.17242187 -108.63679688 80.34484375 -108.96484375 79.4921875 C-114.50747511 61.97032061 -112.14410699 41.2051362 -103.89355469 25.07885742 C-93.91468738 6.61384214 -77.13603953 -5.07626203 -57.3515625 -11.11328125 C-37.55201722 -15.81584907 -16.70379061 -11.15695105 0 0 Z " fill="#44BD63" transform="translate(437,369)"/>
<path d="M0 0 C0.64227539 0.21914062 1.28455078 0.43828125 1.94628906 0.6640625 C31.41297582 10.82595163 31.41297582 10.82595163 37 22 C37.55155028 27.42357778 37.39106512 30.83752792 33.80078125 35.27734375 C27.14928069 41.64027596 18.42885746 45.56221396 10 49 C9.06929687 49.39832031 8.13859375 49.79664063 7.1796875 50.20703125 C-0.82833763 53.3680938 -9.04800998 55.31904342 -17.4375 57.1875 C-19.06836548 57.56249634 -19.06836548 57.56249634 -20.73217773 57.94506836 C-39.57217983 61.96388878 -58.86617672 62.35320403 -78.06079102 62.31567383 C-81.43213049 62.31250505 -84.80259536 62.33613499 -88.17382812 62.36132812 C-107.33467973 62.41802425 -126.38505066 60.95754038 -145 56.1875 C-146.03415039 55.92960693 -147.06830078 55.67171387 -148.13378906 55.40600586 C-163.67832711 51.41323591 -182.64213683 45.93908053 -193.3125 33.25 C-195.35036207 29.3252286 -196.13581449 26.26937362 -195 22 C-188.26592536 9.50428027 -169.50593332 3.2905113 -156.79248047 -0.69140625 C-145.80323482 -3.9627105 -134.70019303 -6.19564454 -123.33886719 -7.69140625 C-121.83556285 -7.88975455 -120.33343115 -8.09732686 -118.83300781 -8.31640625 C-81.2838881 -13.73692787 -35.94507096 -12.41268638 0 0 Z " fill="#D2DBE4" transform="translate(356,149)"/>
<path d="M0 0 C0.70922607 0.39687012 1.41845215 0.79374023 2.14916992 1.20263672 C14.26155338 7.90823532 26.57169203 12.59693565 40 16 C41.02609375 16.26554687 42.0521875 16.53109375 43.109375 16.8046875 C54.89091037 19.59202636 66.9791291 20.72106716 79 22 C80.07078041 22.12658997 80.07078041 22.12658997 81.16319275 22.2557373 C87.90003543 23.00786995 94.57247943 23.17682682 101.34765625 23.203125 C103.10196205 23.21167511 103.10196205 23.21167511 104.89170837 23.22039795 C107.36342478 23.22980435 109.83515349 23.23636448 112.30688477 23.24023438 C115.99975008 23.24983683 119.69203297 23.28086001 123.38476562 23.3125 C139.13775484 23.38290214 154.42314493 22.35194018 170 20 C171.2893042 19.80647949 172.5786084 19.61295898 173.90698242 19.41357422 C176.80780666 18.93701504 179.68308829 18.4037239 182.5625 17.8125 C184.07602051 17.5038501 184.07602051 17.5038501 185.62011719 17.18896484 C193.1303139 15.57398146 200.44839327 13.50669677 207.75 11.125 C208.6891626 10.82182861 209.6283252 10.51865723 210.59594727 10.20629883 C218.20444352 7.59484835 225.01750065 3.95359307 232 0 C232.09918586 5.30186559 232.17161755 10.60318618 232.21972656 15.90576172 C232.23979033 17.70794081 232.26704813 19.51005521 232.30175781 21.31201172 C232.35050829 23.90869136 232.37302082 26.50450729 232.390625 29.1015625 C232.41127014 29.9017984 232.43191528 30.7020343 232.45318604 31.52651978 C232.45566873 37.77454284 230.5676238 41.27296719 226.23828125 45.87109375 C207.49088123 61.11999316 180.02385336 64.04147817 157 67 C155.6994165 67.18095215 154.39883301 67.3619043 153.05883789 67.54833984 C142.20334642 69.00614415 131.50616903 69.31861605 120.5625 69.25 C119.69248352 69.24723053 118.82246704 69.24446106 117.92608643 69.24160767 C103.20596744 69.18692169 88.64232561 68.60405384 74 67 C73.06140137 66.90348145 72.12280273 66.80696289 71.15576172 66.70751953 C53.11027142 64.80190074 34.15800033 61.62348651 18 53 C17.28199219 52.67386719 16.56398437 52.34773438 15.82421875 52.01171875 C9.08154528 48.92608852 3.28407054 44.80497309 0 38 C-0.40221382 35.06078835 -0.34991101 32.16108684 -0.29296875 29.19921875 C-0.28872391 28.36284378 -0.28447906 27.52646881 -0.28010559 26.66474915 C-0.26337364 24.00533235 -0.22573226 21.346686 -0.1875 18.6875 C-0.17244604 16.87956827 -0.15875888 15.07162461 -0.14648438 13.26367188 C-0.11348816 8.84215311 -0.06174428 4.42120698 0 0 Z " fill="#BCC5CD" transform="translate(161,259)"/>
<path d="M0 0 C3.57923895 1.39396702 6.95986126 2.98327156 10.36401367 4.76635742 C32.10401759 16.07580465 55.85344288 20.33015047 80 23 C80.63718964 23.08333084 81.27437927 23.16666168 81.93087769 23.2525177 C88.04171555 24.01436131 94.0726474 24.16109964 100.2265625 24.16796875 C101.29127777 24.17129715 102.35599304 24.17462555 103.45297241 24.17805481 C105.70366996 24.18309753 107.95437493 24.18546396 110.20507812 24.18530273 C113.5665404 24.18746244 116.92765931 24.2055723 120.2890625 24.22460938 C139.78847235 24.27746206 159.06031571 23.3122794 178.1875 19.3125 C179.45287598 19.05194824 180.71825195 18.79139648 182.02197266 18.52294922 C197.61356102 15.17948798 211.83131763 10.05330931 225.91015625 2.6015625 C229 1 229 1 232 0 C232.09918586 5.30186559 232.17161755 10.60318618 232.21972656 15.90576172 C232.23979033 17.70794081 232.26704813 19.51005521 232.30175781 21.31201172 C232.35050829 23.90869136 232.37302082 26.50450729 232.390625 29.1015625 C232.41127014 29.9017984 232.43191528 30.7020343 232.45318604 31.52651978 C232.45562544 37.6656006 230.58657047 40.93524004 226.60546875 45.65234375 C214.55193232 56.5768988 196.35158261 60.44422428 181 64 C180.20464844 64.18433594 179.40929687 64.36867188 178.58984375 64.55859375 C158.14731392 68.96107513 137.11932143 69.20322999 116.30126953 69.24023438 C113.03261496 69.24990352 109.76460101 69.28102949 106.49609375 69.3125 C75.43472009 69.46603098 30.095629 67.64429022 5.4296875 45.71484375 C0.56524914 40.28912404 -0.14311831 36.72273961 -0.09765625 29.4921875 C-0.0962413 28.65156769 -0.09482635 27.81094788 -0.09336853 26.94485474 C-0.08776237 24.25486725 -0.07520886 21.56496241 -0.0625 18.875 C-0.05748579 17.05338662 -0.05292275 15.23177193 -0.04882812 13.41015625 C-0.03779094 8.94007223 -0.0205222 4.47005014 0 0 Z " fill="#BCC5CD" transform="translate(161,200)"/>
<path d="M0 0 C1.90701006 -0.0365179 3.81376884 -0.09094559 5.71972656 -0.1640625 C23.57894598 -0.83840574 23.57894598 -0.83840574 29.65478516 4.56591797 C31.1038408 6.19908286 32.5144562 7.8672974 33.88134766 9.56982422 C35.33845298 11.04626309 36.8096568 12.50893645 38.29541016 13.95654297 C40.41211799 16.11035177 42.52044907 18.27185492 44.62353516 20.43896484 C53.51590392 29.90826143 53.51590392 29.90826143 65.10313129 34.820364 C66.32285271 34.82086722 66.32285271 34.82086722 67.56721497 34.82138062 C68.97386665 34.82945488 68.97386665 34.82945488 70.40893555 34.83769226 C71.43083984 34.83356827 72.45274414 34.82944427 73.50561523 34.82519531 C75.12822517 34.83062599 75.12822517 34.83062599 76.78361511 34.83616638 C79.13315296 34.84306094 81.48270683 34.84556571 83.83225441 34.84421921 C87.55215429 34.84325491 91.27176446 34.85618543 94.99162292 34.87319946 C105.56821175 34.91949945 116.14475765 34.94415855 126.72143555 34.95068359 C133.19061711 34.95569876 139.65949691 34.97995069 146.12857628 35.01601028 C148.59288407 35.02580921 151.05723337 35.02813976 153.52155495 35.02283859 C156.97099664 35.01576701 160.41953968 35.03305408 163.86889648 35.05566406 C164.88472809 35.04749161 165.90055969 35.03931915 166.94717407 35.03089905 C173.11605985 35.10275968 176.91790062 35.79602168 181.88134766 39.56982422 C184.88134766 44.56982422 184.88134766 44.56982422 184.88134766 66.56982422 C116.24134766 66.56982422 47.60134766 66.56982422 -23.11865234 66.56982422 C-23.11865234 6.56982422 -23.11865234 6.56982422 -19.11865234 1.56982422 C-13.90430274 -1.03735059 -5.79529848 0.08617176 0 0 Z " fill="#E3952C" transform="translate(68.11865234375,326.43017578125)"/>
<path d="M0 0 C3.64194493 1.45677797 7.00431036 3.00536678 10.46533203 4.81713867 C18.13867762 8.80665229 25.58992204 11.86367795 34 14 C34.6904541 14.19158691 35.3809082 14.38317383 36.09228516 14.58056641 C78.08521424 26.16451137 124.11194858 25.38638397 167 20 C167.96035156 19.88253418 168.92070312 19.76506836 169.91015625 19.64404297 C189.67501989 17.14432623 211.3800639 12.20639844 228.1796875 1.1015625 C230 0 230 0 232 0 C232 8.25 232 16.5 232 25 C229.195 25.37125 226.39 25.7425 223.5 26.125 C209.61015628 28.20415996 197.42264549 32.64110283 186 41 C185.13761719 41.6290625 184.27523437 42.258125 183.38671875 42.90625 C176.23918551 48.37264872 169.78683386 54.34131562 165.6875 62.4375 C164.191565 64.9506708 163.42569101 65.83429477 160.671875 66.90625 C157.77736121 67.46861268 154.93634587 67.73587332 152 68 C151.14833252 68.08958984 150.29666504 68.17917969 149.41918945 68.27148438 C140.35639721 69.14962033 131.34360299 69.1132541 122.25 69.0625 C120.66666809 69.05747097 119.08333463 69.05291057 117.5 69.04882812 C113.66662728 69.03794281 109.83333146 69.02075696 106 69 C105.98582031 67.81664062 105.97164063 66.63328125 105.95703125 65.4140625 C105.68862942 54.57246363 105.06359417 45.54448992 96.8125 37.625 C86.51147295 30.12732529 76.09622159 30.39631771 63.8671875 30.390625 C62.02058475 30.375624 60.17399533 30.35889285 58.3274231 30.34051514 C53.49751121 30.29704481 48.66778027 30.27688783 43.83770752 30.26177979 C38.89690543 30.24213506 33.95629665 30.20017356 29.015625 30.16015625 C19.34377719 30.08507426 9.67206962 30.03671576 0 30 C0 20.1 0 10.2 0 0 Z " fill="#BCC5CD" transform="translate(161,318)"/>
<path d="M0 0 C4.51478046 1.26187906 8.67110831 3.36822685 12.87695312 5.40698242 C13.82183594 5.8459082 14.76671875 6.28483398 15.74023438 6.73706055 C17.09955078 7.38771484 17.09955078 7.38771484 18.48632812 8.05151367 C19.30584961 8.44314697 20.12537109 8.83478027 20.96972656 9.23828125 C23.39596945 10.7636071 24.66560944 12.13757255 26.12695312 14.59448242 C26.11033333 21.14268013 23.0828978 26.56229797 20.25195312 32.34448242 C19.80464844 33.28936523 19.35734375 34.23424805 18.89648438 35.20776367 C14.9717431 43.34668143 14.9717431 43.34668143 12.12695312 45.59448242 C8.62695312 46.03198242 8.62695312 46.03198242 5.12695312 45.59448242 C2.60152966 43.47638532 2.20411523 42.07950136 1.68945312 38.84448242 C2.2661811 34.56021746 4.00888199 31.32001825 6.12695312 27.59448242 C-0.87263464 31.69180209 -6.96212591 37.49203534 -9.43554688 45.40698242 C-11.33402925 54.89939428 -9.63310454 63.73996293 -4.40039062 71.88745117 C0.76250492 78.39294367 6.70270991 82.04650509 14.97460938 83.07104492 C24.37151811 83.58851058 31.95810578 82.19345685 39.14648438 75.79760742 C45.36868464 69.24792293 48.13073142 62.44008272 48.87695312 53.54760742 C49.12695312 51.59448242 49.12695312 51.59448242 50.18945312 49.03198242 C52.86371049 47.04785599 54.97798532 47.02689608 58.25195312 47.21948242 C60.12695312 47.59448242 60.12695312 47.59448242 62.12695312 49.09448242 C64.9993236 56.2754086 62.62726883 64.59713246 60.12695312 71.59448242 C53.76002054 84.09801927 45.25082907 91.37740428 32.38867188 96.73510742 C21.92776871 99.49127352 9.26654908 98.92881541 -0.40039062 94.07495117 C-11.4960681 87.43156766 -19.70251608 78.75008887 -23.62304688 66.19213867 C-26.44152257 54.11575324 -25.561615 43.02579801 -19.51757812 32.15698242 C-15.25694225 25.39479358 -10.06504177 19.29944949 -2.87304688 15.59448242 C-3.84242188 14.89323242 -4.81179688 14.19198242 -5.81054688 13.46948242 C-8.17820216 11.47388725 -8.87702179 10.58444053 -10.06054688 7.59448242 C-9.87304688 4.59448242 -9.87304688 4.59448242 -7.87304688 1.65698242 C-4.66658972 -0.54745687 -3.69978351 -0.66769227 0 0 Z " fill="#010301" transform="translate(376.873046875,371.405517578125)"/>
<path d="M0 0 C22.96960791 5.34394959 42.98761228 18.03685605 55.9375 37.9375 C68.41810267 58.03177377 73.34068173 81.71090954 68.75 105.046875 C65.06872035 119.54191364 58.66288811 132.58817286 49 144 C48.49210937 144.65226563 47.98421875 145.30453125 47.4609375 145.9765625 C39.01415404 156.42061496 27.35605902 163.97098407 15 169 C14.01 169 13.02 169 12 169 C12 131.38 12 93.76 12 55 C12.33 55 12.66 55 13 55 C13 90.97 13 126.94 13 164 C34.28429056 147.44555179 49.28391992 125.76542954 52.71484375 98.41796875 C54.98294638 71.23180706 47.84703797 45.99760042 30.4375 24.8125 C21.95868036 14.94337813 11.70263007 6.7454773 0 1 C0 0.67 0 0.34 0 0 Z " fill="#579ED6" transform="translate(395,117)"/>
<path d="M0 0 C-0.31182069 1.41681634 -0.62448737 2.83344651 -0.9375 4.25 C-1.11152344 5.03890625 -1.28554688 5.8278125 -1.46484375 6.640625 C-2 9 -2 9 -2.52734375 10.68554688 C-3.19225409 13.94140951 -3.11083664 17.06916771 -3.09765625 20.390625 C-3.09553383 21.44754547 -3.09553383 21.44754547 -3.09336853 22.52581787 C-3.08778933 24.76725584 -3.07524073 27.00859243 -3.0625 29.25 C-3.05748231 30.77343605 -3.05291987 32.29687368 -3.04882812 33.8203125 C-3.03782674 37.54690772 -3.02057646 41.27344396 -3 45 C-18.41926328 46.81593847 -33.46794197 47.17354255 -49 47 C-49 32.15 -49 17.3 -49 2 C-34.8125 1.5625 -34.8125 1.5625 -30.42504883 1.43188477 C-23.21971457 1.20030747 -16.05545144 0.83270291 -8.8737793 0.19897461 C-5.90657351 -0.00646866 -2.9733238 -0.03281936 0 0 Z " fill="#BAC3CB" transform="translate(316,399)"/>
<path d="M0 0 C6.59472023 5.23390495 6.59472023 5.23390495 7.14453125 9.7109375 C6.70703125 13.1484375 6.70703125 13.1484375 5.64453125 15.0859375 C2.49737986 16.81179471 0.10142209 17.12448029 -3.29296875 16.1484375 C-6.07666971 14.34748081 -8.64789469 12.34548112 -11.26953125 10.31640625 C-16.24829034 6.74636582 -21.61787961 4.4002343 -27.29296875 2.1484375 C-28.13988281 1.80683594 -28.98679687 1.46523438 -29.859375 1.11328125 C-44.68653737 -3.8755136 -61.7072687 -1.55361108 -75.6875 4.65625 C-86.14512761 9.8911509 -93.93632253 17.19155404 -101.29296875 26.1484375 C-105.43089978 31.01050647 -105.43089978 31.01050647 -109.41796875 31.6484375 C-112.29296875 31.1484375 -112.29296875 31.1484375 -114.16796875 30.1484375 C-116.0795915 26.74999705 -116.2543342 23.83159085 -115.29296875 20.1484375 C-113.03392076 16.43116806 -110.24310606 13.33161087 -107.29296875 10.1484375 C-106.61878906 9.38273437 -105.94460937 8.61703125 -105.25 7.828125 C-77.5628473 -21.98880867 -32.03796753 -22.97061823 0 0 Z " fill="#020304" transform="translate(343.29296875,51.8515625)"/>
<path d="M0 0 C17.55984445 2.50854921 31.09227703 13.33858161 41.875 26.8125 C52.42919431 41.61131593 57.60735082 60.29404779 54.60888672 78.35595703 C50.2618934 100.00389672 39.33313277 116.65137342 21 129 C15.19871261 132.4509798 8.66385593 135.66450331 2 137 C1.01 136.67 0.02 136.34 -1 136 C0.051875 135.36384766 0.051875 135.36384766 1.125 134.71484375 C19.6196228 123.28134732 31.7475183 107.0418693 37.28125 85.765625 C41.35668598 64.41388433 37.78894733 43.44984192 26 25 C18.99842963 14.98911536 10.48113437 7.21104259 0 1 C0 0.67 0 0.34 0 0 Z " fill="#3DA958" transform="translate(412,359)"/>
<path d="M0 0 C22.20442705 4.07081163 42.04631362 17.66481891 55 36 C67.94271139 55.16599845 72.05166464 74.23995138 73 97 C67.39 95.68 61.78 94.36 56 93 C55.9175 90.89625 55.835 88.7925 55.75 86.625 C54.18248186 60.80823406 43.82162463 38.67183058 26 20 C25.47277344 19.39800781 24.94554687 18.79601562 24.40234375 18.17578125 C19.05734036 12.31131462 12.24202306 8.33994409 5.62353516 4.07226562 C3.6866801 2.79306752 1.83023076 1.42711664 0 0 Z " fill="#59A1DA" transform="translate(314,17)"/>
<path d="M0 0 C68.64 0 137.28 0 208 0 C208 82.91891892 208 82.91891892 202.6875 88.375 C199.52706859 90.28595853 197.63028129 90.33770059 194 90 C194.99 87.69 195.98 85.38 197 83 C197.33 55.94 197.66 28.88 198 1 C132.99 1 67.98 1 1 1 C1 27.4 1 53.8 1 81 C0.67 81 0.34 81 0 81 C0 54.27 0 27.54 0 0 Z " fill="#CF8928" transform="translate(45,406)"/>
<path d="M0 0 C0.33 0 0.66 0 1 0 C1.09918586 5.30186559 1.17161755 10.60318618 1.21972656 15.90576172 C1.23979033 17.70794081 1.26704813 19.51005521 1.30175781 21.31201172 C1.35050829 23.90869136 1.37302082 26.50450729 1.390625 29.1015625 C1.41127014 29.9017984 1.43191528 30.7020343 1.45318604 31.52651978 C1.45529637 36.83746583 0.48025221 39.76301397 -3 44 C-5.21875 46.08203125 -5.21875 46.08203125 -7.5 47.8125 C-8.62921875 48.68841797 -8.62921875 48.68841797 -9.78125 49.58203125 C-11.94003358 50.96167639 -13.53356488 51.45488678 -16 52 C-16.02470049 46.21590487 -16.04286023 40.43184038 -16.05493164 34.64770508 C-16.0599635 32.67960068 -16.06678958 30.71150003 -16.07543945 28.7434082 C-16.08755517 25.91616899 -16.09323976 23.08897916 -16.09765625 20.26171875 C-16.10281754 19.38037766 -16.10797882 18.49903656 -16.11329651 17.59098816 C-16.11340981 16.3600518 -16.11340981 16.3600518 -16.11352539 15.10424805 C-16.115746 14.38254929 -16.11796661 13.66085052 -16.12025452 12.9172821 C-16 11 -16 11 -15 8 C-12.67660293 6.66985518 -10.4191372 5.49885114 -8 4.375 C-3.71145898 2.60096371 -3.71145898 2.60096371 0 0 Z " fill="#AAB2B9" transform="translate(392,259)"/>
<path d="M0 0 C0.66 0 1.32 0 2 0 C2.09918586 5.30186559 2.17161755 10.60318618 2.21972656 15.90576172 C2.23979033 17.70794081 2.26704813 19.51005521 2.30175781 21.31201172 C2.35050829 23.90869136 2.37302082 26.50450729 2.390625 29.1015625 C2.41127014 29.9017984 2.43191528 30.7020343 2.45318604 31.52651978 C2.45565808 37.74776112 0.60527329 41.27233132 -3.74609375 45.828125 C-4.30425781 46.29734375 -4.86242187 46.7665625 -5.4375 47.25 C-5.99308594 47.72953125 -6.54867188 48.2090625 -7.12109375 48.703125 C-9 50 -9 50 -14 52 C-14.33 37.48 -14.66 22.96 -15 8 C-10.38 5.69 -5.76 3.38 -1 1 C-0.67 0.67 -0.34 0.34 0 0 Z " fill="#AAB2B8" transform="translate(391,200)"/>
<path d="M0 0 C0.33 0 0.66 0 1 0 C1 19.47 1 38.94 1 59 C66.01 59 131.02 59 198 59 C198.59070899 39.16607182 198.59070899 39.16607182 194 31 C159.35 30.67 124.7 30.34 89 30 C89 29.67 89 29.34 89 29 C103.09087389 28.90643783 117.1816994 28.83622895 131.27282047 28.79275131 C137.81602317 28.77188342 144.35901707 28.74357957 150.90209961 28.69824219 C157.21742745 28.65475715 163.53255454 28.63085689 169.84802055 28.62049103 C172.25655718 28.61310453 174.66508292 28.59868047 177.07353401 28.57707977 C180.44908452 28.54801152 183.82380721 28.54404558 187.19946289 28.54589844 C188.19352646 28.53151733 189.18759003 28.51713623 190.21177673 28.50231934 C196.34001086 28.53867919 200.06595725 29.2588997 205 33 C208 38 208 38 208 60 C139.36 60 70.72 60 0 60 C0 40.2 0 20.4 0 0 Z " fill="#98641E" transform="translate(45,333)"/>
<path d="M0 0 C4.15773136 1.91941578 7.42991176 3.97956183 10.8125 7.0625 C11.58207031 7.75472656 12.35164063 8.44695312 13.14453125 9.16015625 C15.82964384 11.82265737 15.98040626 12.80732823 16.375 16.6875 C16.28442138 20.5475428 15.29228825 23.17270841 12.83984375 26.2578125 C9.77600905 29.15902328 3.40039605 35 -1 35 C-1.12330415 23.28610535 -0.8283506 11.68566021 0 0 Z " fill="#BBC3CB" transform="translate(377,158)"/>
<path d="M0 0 C0.66 0 1.32 0 2 0 C2 8.25 2 16.5 2 25 C-3.28 25.66 -8.56 26.32 -14 27 C-14.33 20.73 -14.66 14.46 -15 8 C-8.0625 4.5625 -8.0625 4.5625 -5.87524414 3.48266602 C-2.72880426 2.05333834 -2.72880426 2.05333834 0 0 Z " fill="#A9B1B8" transform="translate(391,318)"/>
<path d="M0 0 C2.0625 1.5625 2.0625 1.5625 3 4 C2.67272727 10.32727273 2.67272727 10.32727273 0 13 C-7.16065574 13.68196721 -7.16065574 13.68196721 -10 11.375 C-11.2766188 8.34303035 -11.41616519 6.25996064 -11 3 C-8.78821658 -1.1470939 -4.14616112 -0.75854923 0 0 Z " fill="#080501" transform="translate(231,371)"/>
<path d="M0 0 C1.9375 1.0625 1.9375 1.0625 3 3 C3.36528977 6.4093712 3.6140629 8.88023824 1.9375 11.9375 C-1.1652833 13.63902633 -3.53769185 13.42519574 -7 13 C-9.5 11.4375 -9.5 11.4375 -11 9 C-10.9375 5.375 -10.9375 5.375 -10 2 C-6.30513897 -0.46324069 -4.36706908 -0.38991688 0 0 Z " fill="#070501" transform="translate(203,371)"/>
<path d="M0 0 C2.8520847 1.97452017 3.81895125 3.09475625 4.5 6.5 C3.81895125 9.90524375 2.8520847 11.02547983 0 13 C-3.46230815 13.42519574 -5.8347167 13.63902633 -8.9375 11.9375 C-10.6140629 8.88023824 -10.36528977 6.4093712 -10 3 C-7.7773391 -1.05308751 -4.20075589 -0.5158823 0 0 Z " fill="#070401" transform="translate(147,371)"/>
<path d="M0 0 C1.9375 1.0625 1.9375 1.0625 3 3 C3.36528977 6.4093712 3.6140629 8.88023824 1.9375 11.9375 C-1.11976176 13.6140629 -3.5906288 13.36528977 -7 13 C-8.9375 11.9375 -8.9375 11.9375 -10 10 C-10.36528977 6.5906288 -10.6140629 4.11976176 -8.9375 1.0625 C-5.88023824 -0.6140629 -3.4093712 -0.36528977 0 0 Z " fill="#020100" transform="translate(175,371)"/>
<path d="M0 0 C0.66 0 1.32 0 2 0 C2 1.32 2 2.64 2 4 C-4.435 6.97 -4.435 6.97 -11 10 C-11.33 9.01 -11.66 8.02 -12 7 C-11.21753906 6.57847656 -10.43507813 6.15695312 -9.62890625 5.72265625 C-8.61699219 5.17480469 -7.60507812 4.62695312 -6.5625 4.0625 C-5.55316406 3.51722656 -4.54382813 2.97195313 -3.50390625 2.41015625 C-1.13329507 1.22300532 -1.13329507 1.22300532 0 0 Z " fill="#B3BCC3" transform="translate(391,318)"/>
<path d="M0 0 C0.33 1.32 0.66 2.64 1 4 C0.01 4.66 -0.98 5.32 -2 6 C-2.99 5.67 -3.98 5.34 -5 5 C-3.35 3.35 -1.7 1.7 0 0 Z " fill="#B8C1C8" transform="translate(392,259)"/>
</svg>
